{
  "accessors": [
    {
      "bufferView": 2,
      "componentType": 5126,
      "count": 65533,
      "max": [
        0.40206390619277954,
        0.10095188766717911,
        1.7857794761657715
      ],
      "min": [
        -0.4019070565700531,
        -0.18955913186073303,
        0.00073231116402894258
      ],
      "type": "VEC3"
    },
    {
      "bufferView": 2,
      "byteOffset": 786396,
      "componentType": 5126,
      "count": 65533,
      "max": [
        0.99999076128005981,
        0.99990779161453247,
        0.9994581937789917
      ],
      "min": [
        -0.99999392032623291,
        -0.99995124340057373,
        -0.99976325035095215
      ],
      "type": "VEC3"
    },
    {
      "bufferView": 3,
      "componentType": 5126,
      "count": 65533,
      "max": [
        0.99999409914016724,
        0.99997627735137939,
        0.99993991851806641,
        1
      ],
      "min": [
        -1,
        -0.99995303153991699,
        -0.99999815225601196,
        -1
      ],
      "type": "VEC4"
    },
    {
      "bufferView": 3,
      "byteOffset": 1048528,
      "componentType": 5126,
      "count": 65533,
      "max": [
        0.81176471710205078,
        0.67450982332229614,
        0.52549022436141968,
        1
      ],
      "min": [
        0.81176471710205078,
        0.48627451062202454,
        0.47058823704719543,
        1
      ],
      "type": "VEC4"
    },
    {
      "bufferView": 1,
      "componentType": 5126,
      "count": 65533,
      "max": [
        0.96431452035903931,
        0.99000000953674316
      ],
      "min": [
        0.0099999997764825821,
        0.0258064866065979
      ],
      "type": "VEC2"
    },
    {
      "bufferView": 0,
      "componentType": 5125,
      "count": 98445,
      "max": [
        65532
      ],
      "min": [
        0
      ],
      "type": "SCALAR"
    },
    {
      "bufferView": 2,
      "byteOffset": 1572792,
      "componentType": 5126,
      "count": 8585,
      "max": [
        0.39794233441352844,
        0.087360657751560211,
        1.7587262392044067
      ],
      "min": [
        -0.10898430645465851,
        -0.18955300748348236,
        0.00077297439565882087
      ],
      "type": "VEC3"
    },
    {
      "bufferView": 2,
      "byteOffset": 1675812,
      "componentType": 5126,
      "count": 8585,
      "max": [
        0.99878758192062378,
        0.99985122680664062,
        0.99877113103866577
      ],
      "min": [
        -0.99999386072158813,
        -0.99976474046707153,
        -0.99976342916488647
      ],
      "type": "VEC3"
    },
    {
      "bufferView": 3,
      "byteOffset": 2097056,
      "componentType": 5126,
      "count": 8585,
      "max": [
        0.99995583295822144,
        0.99912619590759277,
        0.99997484683990479,
        1
      ],
      "min": [
        -0.99993979930877686,
        -0.99983340501785278,
        -0.99961936473846436,
        -1
      ],
      "type": "VEC4"
    },
    {
      "bufferView": 3,
      "byteOffset": 2234416,
      "componentType": 5126,
      "count": 8585,
      "max": [
        0.81176471710205078,
        0.67450982332229614,
        0.52549022436141968,
        1
      ],
      "min": [
        0.30980393290519714,
        0.26666668057441711,
        0.26666668057441711,
        1
      ],
      "type": "VEC4"
    },
    {
      "bufferView": 1,
      "byteOffset": 524264,
      "componentType": 5126,
      "count": 8585,
      "max": [
        0.94929081201553345,
        0.99000000953674316
      ],
      "min": [
        0.017515532672405243,
        0.0099999904632568359
      ],
      "type": "VEC2"
    },
    {
      "bufferView": 0,
      "byteOffset": 393780,
      "componentType": 5125,
      "count": 18279,
      "max": [
        8584
      ],
      "min": [
        0
      ],
      "type": "SCALAR"
    },
    {
      "bufferView": 2,
      "byteOffset": 1778832,
      "componentType": 5126,
      "count": 162,
      "max": [
        -0.016408737748861313,
        -0.072772376239299774,
        1.6832262277603149
      ],
      "min": [
        -0.051577553153038025,
        -0.1076594740152359,
        1.648374080657959
      ],
      "type": "VEC3"
    },
    {
      "bufferView": 2,
      "byteOffset": 1780776,
      "componentType": 5126,
      "count": 162,
      "max": [
        0.99936383962631226,
        0.99152642488479614,
        0.99026715755462646
      ],
      "min": [
        -0.99936366081237793,
        -0.99152660369873047,
        -0.99026721715927124
      ],
      "type": "VEC3"
    },
    {
      "bufferView": 3,
      "byteOffset": 2371776,
      "componentType": 5126,
      "count": 162,
      "max": [
        1,
        1,
        1,
        1
      ],
      "min": [
        1,
        1,
        1,
        1
      ],
      "type": "VEC4"
    },
    {
      "bufferView": 1,
      "byteOffset": 592944,
      "componentType": 5126,
      "count": 162,
      "max": [
        1,
        1
      ],
      "min": [
        0,
        0
      ],
      "type": "VEC2"
    },
    {
      "bufferView": 0,
      "byteOffset": 466896,
      "componentType": 5125,
      "count": 960,
      "max": [
        161
      ],
      "min": [
        0
      ],
      "type": "SCALAR"
    },
    {
      "bufferView": 2,
      "byteOffset": 1782720,
      "componentType": 5126,
      "count": 162,
      "max": [
        0.052279718220233917,
        -0.072775684297084808,
        1.6832262277603149
      ],
      "min": [
        0.017110899090766907,
        -0.10760221630334854,
        1.648374080657959
      ],
      "type": "VEC3"
    },
    {
      "bufferView": 2,
      "byteOffset": 1784664,
      "componentType": 5126,
      "count": 162,
      "max": [
        0.99915462732315063,
        0.98953849077224731,
        0.99026727676391602
      ],
      "min": [
        -0.99915468692779541,
        -0.98953831195831299,
        -0.99026709794998169
      ],
      "type": "VEC3"
    },
    {
      "bufferView": 1,
      "byteOffset": 594240,
      "componentType": 5126,
      "count": 162,
      "max": [
        1,
        1
      ],
      "min": [
        0,
        0
      ],
      "type": "VEC2"
    },
    {
      "bufferView": 0,
      "byteOffset": 470736,
      "componentType": 5125,
      "count": 960,
      "max": [
        161
      ],
      "min": [
        0
      ],
      "type": "SCALAR"
    },
    {
      "bufferView": 2,
      "byteOffset": 1786608,
      "componentType": 5126,
      "count": 37834,
      "max": [
        0.38111081719398499,
        0.11523431539535522,
        1.5658938884735107
      ],
      "min": [
        -0.38097801804542542,
        -0.19199332594871521,
        -0.0059674219228327274
      ],
      "type": "VEC3"
    },
    {
      "bufferView": 2,
      "byteOffset": 2240616,
      "componentType": 5126,
      "count": 37834,
      "max": [
        1,
        0.99999821186065674,
        0.9999845027923584
      ],
      "min": [
        -1,
        -0.99999821186065674,
        -0.99997073411941528
      ],
      "type": "VEC3"
    },
    {
      "bufferView": 3,
      "byteOffset": 2374368,
      "componentType": 5126,
      "count": 37834,
      "max": [
        1,
        0.9999927282333374,
        0.99999821186065674,
        1
      ],
      "min": [
        -1,
        -0.99999523162841797,
        -0.99997931718826294,
        -1
      ],
      "type": "VEC4"
    },
    {
      "bufferView": 3,
      "byteOffset": 2979712,
      "componentType": 5126,
      "count": 37834,
      "max": [
        1,
        1,
        1,
        1
      ],
      "min": [
        0.30980393290519714,
        0.24313725531101227,
        0.098039217293262482,
        1
      ],
      "type": "VEC4"
    },
    {
      "bufferView": 1,
      "byteOffset": 595536,
      "componentType": 5126,
      "count": 37834,
      "max": [
        0.99930381774902344,
        0.99945324659347534
      ],
      "min": [
        0.00054670532699674368,
        0.00054670532699674368
      ],
      "type": "VEC2"
    },
    {
      "bufferView": 1,
      "byteOffset": 898208,
      "componentType": 5126,
      "count": 37834,
      "max": [
        0.99989944696426392,
        0.99997669458389282
      ],
      "min": [
        0,
        0
      ],
      "type": "VEC2"
    },
    {
      "bufferView": 0,
      "byteOffset": 474576,
      "componentType": 5125,
      "count": 198894,
      "max": [
        37833
      ],
      "min": [
        0
      ],
      "type": "SCALAR"
    },
    {
      "bufferView": 2,
      "byteOffset": 2694624,
      "componentType": 5126,
      "count": 56736,
      "max": [
        0.11286883056163788,
        0.14439128339290619,
        1.8254890441894531
      ],
      "min": [
        -0.12221001833677292,
        -0.19746032357215881,
        1.2282463312149048
      ],
      "type": "VEC3"
    },
    {
      "bufferView": 2,
      "byteOffset": 3375456,
      "componentType": 5126,
      "count": 56736,
      "max": [
        0.99999469518661499,
        0.99999862909317017,
        0.99996250867843628
      ],
      "min": [
        -0.99998974800109863,
        -0.99990689754486084,
        -0.99982619285583496
      ],
      "type": "VEC3"
    },
    {
      "bufferView": 3,
      "byteOffset": 3585056,
      "componentType": 5126,
      "count": 56736,
      "max": [
        0.99996095895767212,
        0.99953049421310425,
        0.99779564142227173,
        -1
      ],
      "min": [
        -0.99388301372528076,
        -0.87123292684555054,
        -0.99999922513961792,
        -1
      ],
      "type": "VEC4"
    },
    {
      "bufferView": 1,
      "byteOffset": 1200880,
      "componentType": 5126,
      "count": 56736,
      "max": [
        1,
        1
      ],
      "min": [
        0,
        0
      ],
      "type": "VEC2"
    },
    {
      "bufferView": 0,
      "byteOffset": 1270152,
      "componentType": 5125,
      "count": 326088,
      "max": [
        56735
      ],
      "min": [
        0
      ],
      "type": "SCALAR"
    }
  ],
  "asset": {
    "extras": {
      "author": "username11420 (https://sketchfab.com/username11420)",
      "license": "CC-BY-4.0 (http://creativecommons.org/licenses/by/4.0/)",
      "source": "https://sketchfab.com/3d-models/girl-elf-3411204cf3d74c229836b4221c858ed6",
      "title": "Girl elf"
    },
    "generator": "Sketchfab-8.79.0",
    "version": "2.0"
  },
  "bufferViews": [
    {
      "buffer": 0,
      "byteLength": 2574504,
      "byteOffset": 0,
      "name": "floatBufferViews",
      "target": 34963
    },
    {
      "buffer": 0,
      "byteLength": 1654768,
      "byteOffset": 2574504,
      "byteStride": 8,
      "name": "floatBufferViews",
      "target": 34962
    },
    {
      "buffer": 0,
      "byteLength": 4056288,
      "byteOffset": 4229272,
      "byteStride": 12,
      "name": "floatBufferViews",
      "target": 34962
    },
    {
      "buffer": 0,
      "byteLength": 4492832,
      "byteOffset": 8285560,
      "byteStride": 16,
      "name": "floatBufferViews",
      "target": 34962
    }
  ],
  "buffers": [
    {
      "byteLength": 12778392,
      "uri": "scene.bin"
    }
  ],
  "images": [
    {
      "uri": "textures/body_baseColor.png"
    },
    {
      "uri": "textures/body_metallicRoughness.png"
    },
    {
      "uri": "textures/body_normal.png"
    },
    {
      "uri": "textures/material_baseColor.png"
    },
    {
      "uri": "textures/cloth_baseColor.png"
    },
    {
      "uri": "textures/cloth_metallicRoughness.png"
    },
    {
      "uri": "textures/cloth_normal.png"
    },
    {
      "uri": "textures/hair_baseColor.png"
    },
    {
      "uri": "textures/hair_metallicRoughness.png"
    },
    {
      "uri": "textures/hair_normal.png"
    }
  ],
  "materials": [
    {
      "doubleSided": true,
      "emissiveFactor": [
        0,
        0,
        0
      ],
      "name": "body",
      "normalTexture": {
        "index": 2,
        "scale": 1,
        "texCoord": 0
      },
      "pbrMetallicRoughness": {
        "baseColorFactor": [
          1,
          1,
          1,
          1
        ],
        "baseColorTexture": {
          "index": 0,
          "texCoord": 0
        },
        "metallicFactor": 0,
        "metallicRoughnessTexture": {
          "index": 1,
          "texCoord": 0
        },
        "roughnessFactor": 0.59999999999999998
      }
    },
    {
      "doubleSided": true,
      "emissiveFactor": [
        0,
        0,
        0
      ],
      "name": "material",
      "pbrMetallicRoughness": {
        "baseColorFactor": [
          1,
          1,
          1,
          1
        ],
        "baseColorTexture": {
          "index": 3,
          "texCoord": 0
        },
        "metallicFactor": 0.29999999999999999,
        "roughnessFactor": 0
      }
    },
    {
      "doubleSided": true,
      "emissiveFactor": [
        0,
        0,
        0
      ],
      "name": "cloth",
      "normalTexture": {
        "index": 6,
        "scale": 1,
        "texCoord": 0
      },
      "pbrMetallicRoughness": {
        "baseColorFactor": [
          1,
          1,
          1,
          1
        ],
        "baseColorTexture": {
          "index": 4,
          "texCoord": 0
        },
        "metallicFactor": 1,
        "metallicRoughnessTexture": {
          "index": 5,
          "texCoord": 0
        },
        "roughnessFactor": 1
      }
    },
    {
      "doubleSided": true,
      "emissiveFactor": [
        0,
        0,
        0
      ],
      "name": "hair",
      "normalTexture": {
        "index": 9,
        "scale": 1,
        "texCoord": 0
      },
      "pbrMetallicRoughness": {
        "baseColorFactor": [
          1,
          1,
          1,
          1
        ],
        "baseColorTexture": {
          "index": 7,
          "texCoord": 0
        },
        "metallicFactor": 0.40000000000000002,
        "metallicRoughnessTexture": {
          "index": 8,
          "texCoord": 0
        },
        "roughnessFactor": 1
      }
    }
  ],
  "meshes": [
    {
      "name": "Retopo_base_body_body_0",
      "primitives": [
        {
          "attributes": {
            "COLOR_0": 3,
            "NORMAL": 1,
            "POSITION": 0,
            "TANGENT": 2,
            "TEXCOORD_0": 4
          },
          "indices": 5,
          "material": 0,
          "mode": 4
        }
      ]
    },
    {
      "name": "Retopo_base_body_body_0",
      "primitives": [
        {
          "attributes": {
            "COLOR_0": 9,
            "NORMAL": 7,
            "POSITION": 6,
            "TANGENT": 8,
            "TEXCOORD_0": 10
          },
          "indices": 11,
          "material": 0,
          "mode": 4
        }
      ]
    },
    {
      "name": "REye_eye_0",
      "primitives": [
        {
          "attributes": {
            "COLOR_0": 14,
            "NORMAL": 13,
            "POSITION": 12,
            "TEXCOORD_0": 15
          },
          "indices": 16,
          "material": 1,
          "mode": 4
        }
      ]
    },
    {
      "name": "LEye_eye_0",
      "primitives": [
        {
          "attributes": {
            "NORMAL": 18,
            "POSITION": 17,
            "TEXCOORD_0": 19
          },
          "indices": 20,
          "material": 1,
          "mode": 4
        }
      ]
    },
    {
      "name": "Cloth_cloth_0",
      "primitives": [
        {
          "attributes": {
            "COLOR_0": 24,
            "NORMAL": 22,
            "POSITION": 21,
            "TANGENT": 23,
            "TEXCOORD_0": 25,
            "TEXCOORD_1": 26
          },
          "indices": 27,
          "material": 2,
          "mode": 4
        }
      ]
    },
    {
      "name": "Hair_hair_0",
      "primitives": [
        {
          "attributes": {
            "NORMAL": 29,
            "POSITION": 28,
            "TANGENT": 30,
            "TEXCOORD_0": 31
          },
          "indices": 32,
          "material": 3,
          "mode": 4
        }
      ]
    }
  ],
  "nodes": [
    {
      "children": [
        1
      ],
      "name": "RootNode (gltf orientation matrix)",
      "rotation": [
        -0.70710678118654746,
        -0,
        -0,
        0.70710678118654757
      ]
    },
    {
      "children": [
        2
      ],
      "matrix": [
        1,
        0,
        0,
        0,
        0,
        1,
        0,
        0,
        0,
        0,
        1,
        0,
        0,
        1.8818109310814179e-06,
        2.8035643140356115e-08,
        1
      ],
      "name": "RootNode (model correction matrix)"
    },
    {
      "children": [
        3
      ],
      "matrix": [
        1,
        0,
        0,
        0,
        0,
        0,
        1,
        0,
        0,
        -1,
        0,
        0,
        0,
        0,
        0,
        1
      ],
      "name": "06be76e68338484188b2e0c946551646.fbx"
    },
    {
      "children": [
        4,
        7,
        9,
        11,
        13
      ],
      "name": "RootNode"
    },
    {
      "children": [
        5,
        6
      ],
      "matrix": [
        100,
        0,
        0,
        0,
        0,
        -1.6292067939183141e-05,
        -99.999999999998678,
        0,
        0,
        99.999999999998678,
        -1.6292067939183141e-05,
        0,
        0,
        0,
        0,
        1
      ],
      "name": "Retopo_base_body"
    },
    {
      "mesh": 0,
      "name": "Retopo_base_body_body_0"
    },
    {
      "mesh": 1,
      "name": "Retopo_base_body_body_0"
    },
    {
      "children": [
        8
      ],
      "matrix": [
        100,
        0,
        0,
        0,
        0,
        -1.6292067939183141e-05,
        -99.999999999998678,
        0,
        0,
        99.999999999998678,
        -1.6292067939183141e-05,
        0,
        0,
        0,
        0,
        1
      ],
      "name": "REye"
    },
    {
      "mesh": 2,
      "name": "REye_eye_0"
    },
    {
      "children": [
        10
      ],
      "matrix": [
        100,
        0,
        0,
        0,
        0,
        -1.6292067939183141e-05,
        -99.999999999998678,
        0,
        0,
        99.999999999998678,
        -1.6292067939183141e-05,
        0,
        0,
        0,
        0,
        1
      ],
      "name": "LEye"
    },
    {
      "mesh": 3,
      "name": "LEye_eye_0"
    },
    {
      "children": [
        12
      ],
      "matrix": [
        100,
        0,
        0,
        0,
        0,
        -1.6292067939183141e-05,
        -99.999999999998678,
        0,
        0,
        99.999999999998678,
        -1.6292067939183141e-05,
        0,
        0,
        0,
        0,
        1
      ],
      "name": "Cloth"
    },
    {
      "mesh": 4,
      "name": "Cloth_cloth_0"
    },
    {
      "children": [
        14
      ],
      "matrix": [
        100,
        0,
        0,
        0,
        0,
        -1.6292067939183141e-05,
        -99.999999999998678,
        0,
        0,
        99.999999999998678,
        -1.6292067939183141e-05,
        0,
        0,
        0,
        0,
        1
      ],
      "name": "Hair"
    },
    {
      "mesh": 5,
      "name": "Hair_hair_0"
    }
  ],
  "samplers": [
    {
      "magFilter": 9729,
      "minFilter": 9987,
      "wrapS": 10497,
      "wrapT": 10497
    }
  ],
  "scene": 0,
  "scenes": [
    {
      "name": "OSG_Scene",
      "nodes": [
        0
      ]
    }
  ],
  "textures": [
    {
      "sampler": 0,
      "source": 0
    },
    {
      "sampler": 0,
      "source": 1
    },
    {
      "sampler": 0,
      "source": 2
    },
    {
      "sampler": 0,
      "source": 3
    },
    {
      "sampler": 0,
      "source": 4
    },
    {
      "sampler": 0,
      "source": 5
    },
    {
      "sampler": 0,
      "source": 6
    },
    {
      "sampler": 0,
      "source": 7
    },
    {
      "sampler": 0,
      "source": 8
    },
    {
      "sampler": 0,
      "source": 9
    }
  ]
}

